<svg width="717" height="655" viewBox="0 0 717 655" fill="none" xmlns="http://www.w3.org/2000/svg">
<path d="M532.863 369.38C605.647 369.38 664.65 300.951 664.65 216.539C664.65 132.128 605.647 63.6987 532.863 63.6987C460.079 63.6987 401.076 132.128 401.076 216.539C401.076 300.951 460.079 369.38 532.863 369.38Z" fill="#DBE8EC"/>
<path d="M665.326 347.133V323.861C665.326 321.664 664.953 319.488 664.227 317.458C663.502 315.428 662.44 313.583 661.1 312.03C659.76 310.476 658.17 309.243 656.419 308.402C654.669 307.562 652.793 307.129 650.898 307.129H611.004C607.178 307.129 603.508 305.366 600.802 302.228C598.097 299.09 596.577 294.834 596.577 290.396V267.124C596.577 257.883 614.067 250.392 622.035 250.392H623.643C627.469 250.392 631.139 248.629 633.845 245.491C636.55 242.353 638.07 238.097 638.07 233.659V210.387C638.07 205.95 636.55 201.694 633.845 198.556C631.139 195.418 627.469 193.655 623.643 193.655H136.185C134.291 193.655 132.415 194.088 130.664 194.929C128.914 195.77 127.323 197.002 125.983 198.556C124.644 200.11 123.581 201.954 122.856 203.984C122.131 206.014 121.758 208.19 121.758 210.387V233.659C121.758 235.857 122.131 238.033 122.856 240.063C123.581 242.093 124.644 243.937 125.983 245.491C127.323 247.045 128.914 248.277 130.664 249.118C132.415 249.959 134.291 250.392 136.185 250.392C138.08 250.392 139.956 250.825 141.707 251.666C143.457 252.506 145.047 253.739 146.387 255.293C147.727 256.846 148.79 258.691 149.515 260.721C150.24 262.751 150.613 264.927 150.613 267.124V290.396C150.613 294.834 149.093 299.09 146.387 302.228C143.681 305.366 140.012 307.129 136.185 307.129H80.3924C76.5659 307.129 72.8962 308.892 70.1905 312.03C67.4848 315.168 65.9647 319.424 65.9647 323.861V347.133C65.9647 351.571 67.4848 355.827 70.1905 358.965C72.8962 362.103 76.5659 363.866 80.3924 363.866H102.285C104.179 363.866 106.055 364.298 107.806 365.139C109.556 365.98 111.147 367.213 112.487 368.766C113.826 370.32 114.889 372.165 115.614 374.195C116.339 376.225 116.712 378.401 116.712 380.598V403.87C116.712 408.308 115.192 412.564 112.487 415.702C109.781 418.84 106.111 420.603 102.285 420.603H102.232C98.4053 420.603 94.7356 422.366 92.0299 425.504C89.3242 428.641 87.8041 432.897 87.8041 437.335V460.607C87.8041 465.045 89.3242 469.301 92.0299 472.439C94.7356 475.577 98.4053 477.34 102.232 477.34H105.399C109.226 477.34 112.895 479.102 115.601 482.24C118.307 485.378 119.827 489.634 119.827 494.072V517.344C119.827 519.541 119.454 521.717 118.729 523.747C118.003 525.777 116.941 527.622 115.601 529.176C114.261 530.729 112.671 531.962 110.92 532.803C109.17 533.644 107.294 534.077 105.399 534.077H86.5095C82.683 534.077 79.0133 535.839 76.3076 538.977C73.6019 542.115 72.0819 546.371 72.0818 550.809V574.081C72.0818 578.519 73.6019 582.775 76.3076 585.913C79.0133 589.05 82.683 590.813 86.5095 590.813H620.358C624.184 590.813 627.854 589.05 630.56 585.913C633.265 582.775 634.785 578.519 634.785 574.081V550.809C634.785 546.371 633.265 542.115 630.56 538.977C627.854 535.839 624.184 534.076 620.358 534.076H607.848C605.954 534.076 604.078 533.644 602.327 532.803C600.577 531.962 598.986 530.729 597.647 529.176C596.307 527.622 595.244 525.777 594.519 523.747C593.794 521.717 593.421 519.541 593.421 517.344V494.072C593.421 489.634 594.941 485.378 597.647 482.24C600.352 479.102 604.022 477.339 607.848 477.339H637.345C641.171 477.339 644.841 475.577 647.546 472.439C650.252 469.301 651.772 465.045 651.772 460.607V437.335C651.772 435.138 651.399 432.962 650.674 430.932C649.949 428.902 648.886 427.057 647.546 425.504C646.207 423.95 644.616 422.717 642.866 421.876C641.115 421.035 639.239 420.603 637.345 420.603H628.397C626.502 420.603 624.626 420.17 622.876 419.329C621.125 418.488 619.535 417.256 618.195 415.702C616.855 414.148 615.792 412.304 615.067 410.273C614.342 408.243 613.969 406.068 613.969 403.87V380.598C613.969 376.16 615.489 371.904 618.195 368.766C620.901 365.629 624.57 363.866 628.397 363.866H650.898C652.793 363.866 654.669 363.433 656.419 362.592C658.17 361.751 659.76 360.519 661.1 358.965C662.44 357.411 663.502 355.567 664.227 353.536C664.953 351.506 665.326 349.33 665.326 347.133Z" fill="#DBE8EC"/>
<path d="M519.041 215.356C462.833 214.253 406.798 195.653 355.97 160.927C305.188 195.653 249.153 214.253 192.933 215.356C181.476 357.204 218.492 527.888 355.97 591.301C493.494 527.888 530.371 357.204 519.041 215.356Z" fill="#409CB5"/>
<path d="M480.748 253.106C437.739 252.262 394.862 238.03 355.97 211.458C317.113 238.03 274.237 252.262 231.219 253.106C222.452 361.645 250.776 492.247 355.97 540.77C461.2 492.247 489.417 361.645 480.748 253.106Z" fill="#DBE8EC"/>
<path d="M536.113 305.035C580.675 305.035 616.799 263.139 616.799 211.458C616.799 159.778 580.675 117.882 536.113 117.882C491.551 117.882 455.427 159.778 455.427 211.458C455.427 263.139 491.551 305.035 536.113 305.035Z" fill="#EE781D"/>
<path d="M538.447 248.108H496.02C495.201 248.108 494.396 247.858 493.687 247.383C492.977 246.908 492.388 246.225 491.979 245.402C491.569 244.58 491.354 243.646 491.354 242.697C491.354 241.747 491.569 240.814 491.979 239.991L513.193 197.378L534.407 154.764C534.816 153.942 535.405 153.259 536.114 152.784C536.824 152.309 537.628 152.059 538.447 152.059C539.266 152.059 540.071 152.309 540.78 152.784C541.49 153.259 542.079 153.942 542.488 154.764L563.702 197.378L584.916 239.991C585.325 240.814 585.541 241.747 585.541 242.697C585.541 243.646 585.325 244.58 584.916 245.402C584.506 246.225 583.917 246.908 583.208 247.383C582.499 247.858 581.694 248.108 580.875 248.108L538.447 248.108Z" fill="#F9AE2B"/>
<path d="M540.781 177.641C540.781 176.146 539.736 174.934 538.447 174.934C537.158 174.934 536.113 176.146 536.113 177.641V217.996C536.113 219.491 537.158 220.703 538.447 220.703C539.736 220.703 540.781 219.491 540.781 217.996V177.641Z" fill="#409CB5"/>
<path d="M544.004 234.278C544.308 230.719 542.067 227.548 538.998 227.195C535.928 226.843 533.194 229.443 532.89 233.002C532.586 236.561 534.828 239.733 537.897 240.085C540.966 240.437 543.7 237.838 544.004 234.278Z" fill="#409CB5"/>
<path d="M335.15 354.104V321.233C335.15 317.937 335.713 314.674 336.807 311.631C337.901 308.589 339.504 305.829 341.523 303.509C343.542 301.189 345.938 299.357 348.571 298.117C351.204 296.877 354.023 296.254 356.865 296.285H359.229C362.071 296.253 364.891 296.875 367.524 298.114C370.158 299.354 372.554 301.186 374.573 303.506C376.593 305.826 378.196 308.587 379.289 311.63C380.383 314.673 380.945 317.937 380.944 321.233V332.306C380.949 333.049 381.205 333.76 381.657 334.286C382.108 334.813 382.72 335.113 383.36 335.123L394.796 335.183C395.115 335.184 395.432 335.112 395.728 334.972C396.024 334.831 396.293 334.624 396.52 334.362C396.747 334.1 396.927 333.79 397.05 333.447C397.173 333.105 397.236 332.738 397.237 332.367V323.065C397.238 317.36 396.269 311.709 394.386 306.438C392.502 301.167 389.741 296.378 386.26 292.346C382.779 288.313 378.647 285.116 374.1 282.938C369.553 280.76 364.68 279.642 359.76 279.65H356.334C351.416 279.645 346.544 280.765 341.999 282.944C337.454 285.124 333.323 288.321 329.844 292.353C326.365 296.385 323.605 301.173 321.722 306.443C319.839 311.713 318.87 317.361 318.87 323.065V354.983L335.15 354.104Z" fill="#EE781D"/>
<path d="M402.647 448.625C405.509 448.616 408.253 447.294 410.277 444.947C412.301 442.599 413.441 439.418 413.448 436.098V364.855C413.441 361.535 412.301 358.354 410.277 356.006C408.253 353.659 405.509 352.336 402.647 352.328H313.46C310.598 352.336 307.854 353.659 305.83 356.006C303.806 358.354 302.666 361.535 302.659 364.855V436.098C302.666 439.418 303.806 442.599 305.83 444.947C307.854 447.294 310.598 448.616 313.46 448.625H402.647Z" fill="#F9AE2B"/>
<path d="M358.054 376.766C354.987 376.778 352.05 378.196 349.882 380.711C347.714 383.226 346.491 386.633 346.482 390.19C346.535 392.209 346.986 394.187 347.802 395.972C348.618 397.757 349.775 399.301 351.186 400.486V416.238C351.186 418.35 351.91 420.376 353.198 421.87C354.486 423.363 356.232 424.202 358.054 424.202C359.875 424.202 361.622 423.363 362.91 421.87C364.197 420.376 364.921 418.35 364.921 416.238V400.486C366.33 399.299 367.486 397.754 368.301 395.969C369.116 394.185 369.569 392.208 369.625 390.19C369.616 386.633 368.394 383.226 366.226 380.711C364.058 378.196 361.12 376.778 358.054 376.766Z" fill="#EE781D"/>
<path d="M138.158 338.66H171.604" stroke="#B9D4DB" stroke-width="3" stroke-miterlimit="10"/>
<path d="M138.158 349.84H171.604" stroke="#B9D4DB" stroke-width="3" stroke-miterlimit="10"/>
<path d="M138.158 361.02H171.604" stroke="#B9D4DB" stroke-width="3" stroke-miterlimit="10"/>
<path d="M606.802 99.4802H640.248" stroke="#B9D4DB" stroke-width="3" stroke-miterlimit="10"/>
<path d="M606.802 110.66H640.248" stroke="#B9D4DB" stroke-width="3" stroke-miterlimit="10"/>
<path d="M606.802 121.84H640.248" stroke="#B9D4DB" stroke-width="3" stroke-miterlimit="10"/>
<path d="M544.032 381.054H577.478" stroke="#B9D4DB" stroke-width="3" stroke-miterlimit="10"/>
<path d="M544.032 392.234H577.478" stroke="#B9D4DB" stroke-width="3" stroke-miterlimit="10"/>
<path d="M544.032 403.414H577.478" stroke="#B9D4DB" stroke-width="3" stroke-miterlimit="10"/>
<path d="M252.447 175.664C261.841 175.664 269.457 166.832 269.457 155.937C269.457 145.043 261.841 136.211 252.447 136.211C243.053 136.211 235.438 145.043 235.438 155.937C235.438 166.832 243.053 175.664 252.447 175.664Z" fill="#B9D4DB"/>
<path d="M256.707 126.289C261.6 126.289 265.567 121.688 265.567 116.014C265.567 110.339 261.6 105.738 256.707 105.738C251.814 105.738 247.847 110.339 247.847 116.014C247.847 121.688 251.814 126.289 256.707 126.289Z" fill="#B9D4DB"/>
<path d="M287.89 123.035C290.713 123.035 293.001 120.381 293.001 117.108C293.001 113.834 290.713 111.18 287.89 111.18C285.068 111.18 282.78 113.834 282.78 117.108C282.78 120.381 285.068 123.035 287.89 123.035Z" fill="#B9D4DB"/>
<path d="M290.923 164.206C297.69 164.206 303.175 157.845 303.175 149.997C303.175 142.15 297.69 135.789 290.923 135.789C284.157 135.789 278.672 142.15 278.672 149.997C278.672 157.845 284.157 164.206 290.923 164.206Z" fill="#B9D4DB"/>
<path d="M496.497 567.961C505.891 567.961 513.506 559.129 513.506 548.234C513.506 537.339 505.891 528.507 496.497 528.507C487.103 528.507 479.487 537.339 479.487 548.234C479.487 559.129 487.103 567.961 496.497 567.961Z" fill="#B9D4DB"/>
<path d="M472.711 529.229C477.604 529.229 481.57 524.628 481.57 518.954C481.57 513.279 477.604 508.678 472.711 508.678C467.817 508.678 463.851 513.279 463.851 518.954C463.851 524.628 467.817 529.229 472.711 529.229Z" fill="#B9D4DB"/>
<path d="M493.336 497.734C496.158 497.734 498.446 495.081 498.446 491.807C498.446 488.534 496.158 485.88 493.336 485.88C490.513 485.88 488.225 488.534 488.225 491.807C488.225 495.081 490.513 497.734 493.336 497.734Z" fill="#B9D4DB"/>
<path d="M517.106 524.296C523.872 524.296 529.357 517.934 529.357 510.087C529.357 502.24 523.872 495.879 517.106 495.879C510.34 495.879 504.855 502.24 504.855 510.087C504.855 517.934 510.34 524.296 517.106 524.296Z" fill="#B9D4DB"/>
<path d="M169.835 536.913C179.229 536.913 186.845 528.081 186.845 517.186C186.845 506.292 179.229 497.46 169.835 497.46C160.441 497.46 152.826 506.292 152.826 517.186C152.826 528.081 160.441 536.913 169.835 536.913Z" fill="#B9D4DB"/>
<path d="M146.05 498.181C150.943 498.181 154.909 493.581 154.909 487.906C154.909 482.231 150.943 477.631 146.05 477.631C141.156 477.631 137.19 482.231 137.19 487.906C137.19 493.581 141.156 498.181 146.05 498.181Z" fill="#B9D4DB"/>
<path d="M166.675 466.687C169.497 466.687 171.785 464.033 171.785 460.76C171.785 457.486 169.497 454.833 166.675 454.833C163.852 454.833 161.564 457.486 161.564 460.76C161.564 464.033 163.852 466.687 166.675 466.687Z" fill="#B9D4DB"/>
<path d="M190.445 493.248C197.211 493.248 202.696 486.887 202.696 479.039C202.696 471.192 197.211 464.831 190.445 464.831C183.679 464.831 178.194 471.192 178.194 479.039C178.194 486.887 183.679 493.248 190.445 493.248Z" fill="#B9D4DB"/>
</svg>
